<svg width="40" height="40" viewBox="0 0 40 40" fill="none" xmlns="http://www.w3.org/2000/svg">
<path d="M39.4508 29.199C40.1831 30.0359 40.1831 31.3927 39.4508 32.2295L33.2008 39.3709C32.0282 40.7111 30 39.7718 30 37.8556V34.2857H25.4074C25.2788 34.2857 25.1517 34.2555 25.0337 34.1969C24.9158 34.1384 24.8097 34.0528 24.722 33.9454L19.2098 27.1957L23.3764 22.0937L27.5 27.1429H30V23.5731C30 21.659 32.0268 20.7162 33.2008 22.0579L39.4508 29.199ZM0.937499 12.8571H7.49999L11.6235 17.9063L15.7901 12.8043L10.278 6.05464C10.1902 5.94723 10.0841 5.86159 9.96622 5.80303C9.84831 5.74448 9.72112 5.71427 9.59256 5.71428H0.937499C0.419765 5.71428 0 6.19402 0 6.78571V11.7857C0 12.3774 0.419765 12.8571 0.937499 12.8571ZM30 12.8571V16.4271C30 18.3432 32.0282 19.2825 33.2008 17.9424L39.4508 10.801C40.1831 9.96411 40.1831 8.60732 39.4508 7.77054L33.2008 0.629371C32.0268 -0.712416 30 0.230531 30 2.14455V5.71428H25.4074C25.2788 5.7143 25.1517 5.74452 25.0337 5.80307C24.9158 5.86162 24.8097 5.94725 24.722 6.05464L7.49999 27.1429H0.937499C0.419765 27.1429 0 27.6226 0 28.2143V33.2143C0 33.806 0.419765 34.2857 0.937499 34.2857H9.59256C9.85241 34.2857 10.1006 34.1624 10.278 33.9454L27.5 12.8571H30Z" fill="white"/>
</svg>
