<svg width="53" height="34" viewBox="0 0 53 34" fill="none" xmlns="http://www.w3.org/2000/svg">
<path d="M0.920746 2.41641V31.5831C0.920746 33.3747 3.02908 34.3289 4.377 33.1518L21.0437 18.5685C21.2674 18.373 21.4468 18.1318 21.5697 17.8612C21.6925 17.5906 21.7561 17.2969 21.7561 16.9997C21.7561 16.7026 21.6925 16.4088 21.5697 16.1383C21.4468 15.8677 21.2674 15.6265 21.0437 15.431L4.377 0.847662C3.02908 -0.329421 0.920746 0.626828 0.920746 2.41641Z" fill="white"/>
<path d="M31.7561 2.41641V31.5831C31.7561 33.3747 33.8645 34.3289 35.2124 33.1518L51.879 18.5685C52.1028 18.373 52.2822 18.1318 52.405 17.8612C52.5279 17.5906 52.5915 17.2969 52.5915 16.9997C52.5915 16.7026 52.5279 16.4088 52.405 16.1383C52.2822 15.8677 52.1028 15.6265 51.879 15.431L35.2124 0.847662C33.8645 -0.329421 31.7561 0.626828 31.7561 2.41641Z" fill="white"/>
</svg>
