<svg width="40" height="31" viewBox="0 0 40 31" fill="none" xmlns="http://www.w3.org/2000/svg">
<path d="M39.8891 10.2636C40.1544 10.7735 39.9306 11.342 39.3586 11.7053L35.7696 14.0144C35.8607 14.5008 35.9105 14.9989 35.9105 15.5029C35.9105 16.0069 35.8607 16.5051 35.7696 16.9915L39.3586 19.3005C39.9306 19.6639 40.1544 20.2324 39.8891 20.7422C39.5244 21.4396 39.0851 22.1077 38.5795 22.7524L38.1899 23.2271C37.6428 23.8718 37.0295 24.4812 36.3581 25.0556C35.869 25.4775 35.0567 25.6182 34.3273 25.4541L29.7104 24.4168C28.5997 25.0204 27.3729 25.5244 26.0633 25.9054L25.0272 29.2517C24.8614 29.785 24.2812 30.207 23.5186 30.2949C22.3748 30.4297 21.1977 30.5 19.9959 30.5C18.794 30.5 17.617 30.4297 16.4731 30.2949C15.7105 30.207 15.1303 29.785 14.9645 29.2517L13.9284 25.9054C12.6188 25.5244 11.392 25.0204 10.2813 24.4168L5.67271 25.46C4.94329 25.624 4.13098 25.4775 3.64194 25.0614C2.97054 24.4871 2.35717 23.8776 1.8101 23.233L1.42052 22.7583C0.914904 22.1136 0.475595 21.4455 0.110885 20.7481C-0.154359 20.2382 0.0694405 19.6698 0.641372 19.3064L4.23045 16.9974C4.13927 16.5051 4.08954 16.0069 4.08954 15.5029C4.08954 14.9989 4.13927 14.5008 4.23045 14.0144L0.641372 11.7053C0.0694405 11.342 -0.154359 10.7735 0.110885 10.2636C0.475595 9.56622 0.914904 8.89813 1.42052 8.25347L1.8101 7.77877C2.35717 7.13411 2.97054 6.52461 3.64194 5.95028C4.13098 5.52833 4.94329 5.38767 5.67271 5.55177L10.2896 6.58908C11.4003 5.98545 12.6271 5.48144 13.9367 5.10051L14.9728 1.75415C15.1386 1.22084 15.7188 0.798887 16.4814 0.710979C17.6252 0.570326 18.8023 0.5 20.0041 0.5C21.206 0.5 22.383 0.570326 23.5269 0.705118C24.2895 0.793026 24.8697 1.21498 25.0355 1.74829L26.0716 5.09465C27.3812 5.47558 28.608 5.97959 29.7187 6.58322L34.3356 5.54591C35.065 5.38181 35.8773 5.52833 36.3664 5.94442C37.0377 6.51875 37.6511 7.12825 38.1982 7.7729L38.5878 8.24761C39.0934 8.89226 39.5327 9.56036 39.8974 10.2578L39.8891 10.2636ZM20.0041 20.1913C21.7628 20.1913 23.4495 19.6974 24.693 18.8181C25.9366 17.9389 26.6352 16.7464 26.6352 15.5029C26.6352 14.2595 25.9366 13.067 24.693 12.1877C23.4495 11.3085 21.7628 10.8145 20.0041 10.8145C18.2455 10.8145 16.5588 11.3085 15.3153 12.1877C14.0717 13.067 13.3731 14.2595 13.3731 15.5029C13.3731 16.7464 14.0717 17.9389 15.3153 18.8181C16.5588 19.6974 18.2455 20.1913 20.0041 20.1913Z" fill="white"/>
</svg>
