<svg width="60" height="42" viewBox="0 0 60 42" fill="none" xmlns="http://www.w3.org/2000/svg">
<g filter="url(#filter0_d_15_107)">
<path d="M24.8354 31.5836L24.8354 2.41692C24.8354 0.625255 22.727 -0.328912 21.3791 0.848172L4.71246 15.4315C4.48869 15.627 4.30934 15.8682 4.18646 16.1388C4.06357 16.4094 4 16.7031 4 17.0003C4 17.2974 4.06357 17.5912 4.18646 17.8617C4.30934 18.1323 4.48869 18.3735 4.71246 18.569L21.3791 33.1523C22.727 34.3294 24.8354 33.3732 24.8354 31.5836Z" fill="white"/>
<path d="M55.6707 31.5836L55.6707 2.41692C55.6707 0.625255 53.5624 -0.328912 52.2145 0.848172L35.5478 15.4315C35.3241 15.627 35.1447 15.8682 35.0218 16.1388C34.8989 16.4094 34.8354 16.7031 34.8354 17.0003C34.8354 17.2974 34.8989 17.5912 35.0218 17.8617C35.1447 18.1323 35.3241 18.3735 35.5478 18.569L52.2145 33.1523C53.5624 34.3294 55.6707 33.3732 55.6707 31.5836Z" fill="white"/>
</g>
<defs>
<filter id="filter0_d_15_107" x="0" y="0.329224" width="59.6707" height="41.3417" filterUnits="userSpaceOnUse" color-interpolation-filters="sRGB">
<feFlood flood-opacity="0" result="BackgroundImageFix"/>
<feColorMatrix in="SourceAlpha" type="matrix" values="0 0 0 0 0 0 0 0 0 0 0 0 0 0 0 0 0 0 127 0" result="hardAlpha"/>
<feOffset dy="4"/>
<feGaussianBlur stdDeviation="2"/>
<feComposite in2="hardAlpha" operator="out"/>
<feColorMatrix type="matrix" values="0 0 0 0 0 0 0 0 0 0 0 0 0 0 0 0 0 0 0.25 0"/>
<feBlend mode="normal" in2="BackgroundImageFix" result="effect1_dropShadow_15_107"/>
<feBlend mode="normal" in="SourceGraphic" in2="effect1_dropShadow_15_107" result="shape"/>
</filter>
</defs>
</svg>
