<svg width="90" height="81" viewBox="0 0 90 81" fill="none" xmlns="http://www.w3.org/2000/svg">
<path d="M39.4707 0.000437236C27.8407 -0.0517938 16.3019 4.57622 8.5103 13.5025C-4.9676 28.942 -2.12989 51.3933 14.848 63.6499C16.0746 64.536 17.4291 65.3777 18.7299 66.1099C4.88438 53.4519 3.28689 33.0818 15.7915 18.7587C28.2952 4.43433 50.4726 1.22734 67.1698 10.6183C66.0919 9.63288 64.8815 8.62413 63.6551 7.73864C56.4924 2.56777 47.9573 0.0380438 39.4707 8.922e-05V0.000437236ZM47.2801 11.8416C43.9923 11.812 40.6819 12.5423 37.5191 14.2073L37.544 14.2485L36.7954 14.588C43.0145 25.9156 45.2576 39.0565 44.0622 52.4668C40.9166 48.6963 35.4387 45.6542 29.7993 44.9142C22.0052 43.8923 16.8571 47.6543 18.3006 53.3173C19.7446 58.9804 27.2331 64.3997 35.0269 65.4219C41.4054 66.2585 46.0087 63.8898 46.6807 59.8983H46.6816C48.3051 50.6433 48.4066 41.3479 46.7907 32.4813C58.1803 32.2837 67.8837 47.1779 60.5687 62.2638C76.0252 48.5805 61.8629 22.812 45.0074 25.0914C44.649 23.9092 44.2569 22.7382 43.8311 21.5786C58.4499 17.6897 75.4687 34.4616 69.5633 54.8073C84.2696 37.2265 66.1428 12.0132 47.2803 11.8416H47.2801ZM70.2219 14.325C84.4924 26.5857 86.7841 46.9008 74.7743 61.5702C62.7656 76.2402 40.7077 80.0716 23.6985 71.1567C24.8097 72.1108 26.0533 73.085 27.3096 73.9354C44.698 85.7065 69.2872 82.4313 82.2312 66.6182C95.1757 50.8056 91.5737 28.4449 74.1854 16.6735C72.9294 15.8226 71.5466 15.0198 70.2217 14.3248L70.2219 14.325Z" fill="white"/>
</svg>
