<svg width="32" height="38" viewBox="0 0 32 38" fill="none" xmlns="http://www.w3.org/2000/svg">
<path d="M5.35825 0.25C2.77036 0.25 0.670746 2.34961 0.670746 4.9375V33.0625C0.670746 35.6504 2.77036 37.75 5.35825 37.75H8.48325C11.0711 37.75 13.1707 35.6504 13.1707 33.0625V4.9375C13.1707 2.34961 11.0711 0.25 8.48325 0.25H5.35825ZM24.1082 0.25C21.5204 0.25 19.4207 2.34961 19.4207 4.9375V33.0625C19.4207 35.6504 21.5204 37.75 24.1082 37.75H27.2332C29.8211 37.75 31.9207 35.6504 31.9207 33.0625V4.9375C31.9207 2.34961 29.8211 0.25 27.2332 0.25H24.1082Z" fill="white"/>
</svg>
